<?xml version="1.0" encoding="UTF-8"?>
<svg viewBox="0 0 261.05 282.56" xmlns="http://www.w3.org/2000/svg">
 <path d="m95.983 229.61c63.814-53.382 67.864-6.638 121.64-37.493 28.876-20.408 21.976-40.488 15.738-52.122-8.693-16.215-17.147-22.818-4.97-22.261 9.267 0.425 53.64 37.93 15.292 77.474-53.345 55.009-77.576 8.919-135.62 49.008-49.342 34.079-11.501-13.767-12.082-14.606z" fill="#698000"/>
 <path d="m260.93 163.15c-2.958 5.315-6.525 15-11.918 20.56-53.345 55.009-86.899 19.308-130.49 49.285-20.071 13.804-25.701 14.146-25.39 9.591-6.737 11.349-10.34 22.478 20.807 0.964 58.042-40.087 82.25 6.349 135.04-54.065 9.057-9.34 9.287-17.854 11.946-26.335zm-36.495-45.246c-3.533 3.541 3.232 11.209 6.412 16.291 4.154 10.251 14.654 18.585-0.078995 46.941 23.233-15.356 15.566-49.523-6.333-63.232z" fill-opacity=".314"/>
 <path d="m199.58 175.99c0.011993 51.189-41.482 92.694-92.672 92.691-51.189-0.002014-92.681-41.512-92.662-92.701-0.014-51.188 41.482-92.69 92.671-92.688 51.19 0.002998 92.681 41.51 92.663 92.698z" fill="#698000"/>
 <path d="m193.98 144.2c0.064011 1.422 0.10501 2.871 0.10501 4.309-0.002014 51.153-41.514 92.661-92.667 92.659-39.984-0.001999-74.101-25.384-87.082-60.89 2.243 49.164 42.866 88.383 92.579 88.385 51.152 0.002991 92.664-41.505 92.668-92.658 0.001007-11.168-1.976-21.885-5.603-31.805z" fill-opacity=".314"/>
 <path d="m33.266 258.92c-7e-3 19.188 15.546 21.633 34.732 21.634 19.188 0.001007 34.739-2.442 34.735-21.63 0.005997-19.187-16.199-29.779-34.732-34.746-28.831-7.727-34.74 15.555-34.735 34.742z" fill="#698000"/>
 <g fill="#fff">
  <path d="m95.035 269.74c1.391 5.184-2.75 7-8.076 8.427-5.327 1.428-9.82 1.924-11.208-3.261-1.391-5.184 1.802-10.542 7.127-11.97 5.326-1.427 10.77 1.62 12.157 6.804z"/>
  <path d="m59.977 275.36c-1.389 5.185-5.882 4.687-11.208 3.261-5.326-1.428-9.467-3.245-8.076-8.429 1.388-5.184 6.832-8.23 12.158-6.803 5.325 1.428 8.516 6.788 7.126 11.971z"/>
  <path d="m77.135 274.5c0.001999 5.367-4.468 6.049-9.982 6.049s-9.983-0.68301-9.981-6.05c-0.002003-5.367 4.469-9.719 9.982-9.719 5.514 0 9.983 4.353 9.981 9.72z"/>
 </g>
 <path d="m78.995 227.98c4.751 6.229 7.668 14.005 7.665 23.608 0.004997 22.692-15.553 25.591-34.739 25.59-2.97 0-5.842-0.089996-8.593-0.29098 6.294 3.055 15.017 3.676 24.666 3.676 19.187 0.001007 34.744-2.463 34.739-21.65 0.004997-15.249-10.234-25.052-23.738-30.933z" fill-opacity=".314"/>
 <path d="m180.56 258.93c0.003998 19.188-15.547 21.631-34.734 21.63-19.187-0.001007-34.74-2.446-34.733-21.634-0.004997-19.187 16.203-29.777 34.735-34.742 28.832-7.725 34.738 15.559 34.732 34.746z" fill="#698000"/>
 <g fill="#fff">
  <path d="m173.71 269.74c1.391 5.185-2.75 7.001-8.076 8.428-5.328 1.428-9.82 1.924-11.209-3.262-1.391-5.183 1.801-10.541 7.127-11.969s10.769 1.62 12.158 6.803z"/>
  <path d="m138.65 275.36c-1.387 5.185-5.88 4.687-11.206 3.261-5.326-1.428-9.467-3.245-8.077-8.429s6.833-8.23 12.159-6.803c5.324 1.428 8.515 6.788 7.124 11.971z"/>
  <path d="m155.81 274.51c0.001999 5.367-4.469 6.049-9.982 6.049s-9.984-0.68301-9.982-6.05c-0.001999-5.367 4.469-9.719 9.982-9.719s9.983 4.353 9.982 9.72z"/>
 </g>
 <path d="m161.5 223.18c8.936 6.897 11.291 20.873 11.289 33.206 0.003998 19.854-16.082 22.392-35.93 22.391-4.306-0.001007-8.413-0.14002-12.239-0.52902 5.865 1.878 13.214 2.301 21.2 2.301 19.188 9.77e-4 34.746-2.436 34.74-21.623 0.003998-15.033-3.624-32.566-19.06-35.746z" fill-opacity=".314"/>
 <path d="m163.23 107.68c1.354 5.895 2.799 12.142 2.799 18.632-0.002014 34.886-42.576 63.2-63.208 63.199-15.99-0.001007-47.182-18.346-58.736-43.705 5.878 31.079 44.147 55.12 62.452 55.121 20.631 9.92e-4 63.206-28.314 63.208-63.201 0-10.874-2.636-21.108-6.515-30.046z" fill-opacity=".314"/>
 <path d="m210.93 103.8c0.003998-11.195-13.559-20.778-15.404-30.8-2.033-11.044 6.465-25.727 1.098-34.585-5.381-8.883-21.582-7.54-31.465-13.423-8.174-4.865-13.541-20.498-25.512-22.808-9.344-1.804-21.171 10.083-33.181 10.083-11.952 0-23.786-11.85-33.121-9.993-11.857 2.358-17.103 18.024-25.27 22.965-9.757 5.902-25.973 4.553-31.398 13.413-5.402 8.823 2.979 23.527 0.864 34.502-1.926 9.992-15.54 19.489-15.537 30.646-3e-3 10.354 14.17 17.389 17.144 25.574 3.36 9.25-2.229 23.91 4.293 30.512 6.467 6.547 21.622 1.375 30.533 5.442 1.089 0.49699 3.605 0.927 7.153 1.292 14.603 13.755 32.168 22.417 43.629 22.418 11.888 0.001007 30.65-8.585 45.648-22.282 4.289-0.39299 7.326-0.86699 8.553-1.428 8.912-4.066 24.066 1.107 30.533-5.439 6.521-6.601 0.93401-21.263 4.295-30.513 2.973-8.186 17.149-15.221 17.145-25.576z" fill="#698000"/>
 <path d="m207.41 92.928c-1.453 14.014-10.15 14.461-16.809 25.109-3.83 6.127 0.502 27.451-4.713 32.412-4.846 4.609-15.947 2.856-24.406 3.742-2.52 0.26401-4.807 0.759-6.621 1.729-3.287 1.757-26.381 16.049-31.441 18.509-8.052 3.915-16.731 5.095-22.723 5.095-6.293 0-16.121-4.938-24.561-10.219-13.365-8.362-15.032-9.362-27.271-13.793-9.849-3.565-17.854 2.063-27.838-3.705 2.109 19.893 17.143 8.252 33.359 13.143 1.247 0.37601 3.611 2.75 6.81 3.105 14.755 12.93 32.495 20.974 43.57 20.975 11.087 0 27.957-7.467 42.27-19.584 5.234-2.503 9.686-2.369 11.602-3.496 8.625-5.071 26.066 3.38 31.756-4.469 4.498-6.206 2.762-23.759 4.994-31.781 1.904-6.849 16.447-16.087 16.445-24.308 0.001007-6.232-3.313-6.555-4.423-12.464z" fill-opacity=".314"/>
 <path d="m165.31 109.66c0.003998 10.59-8.582 19.177-19.174 19.177-10.591-0.001007-19.175-8.589-19.172-19.179-0.002007-10.592 8.583-19.179 19.174-19.178 10.592 0.001999 19.176 8.588 19.172 19.18z" fill="#fff"/>
 <path d="m148.27 113.04c0.001999 3.53-2.859 6.393-6.389 6.393-3.531 0-6.394-2.863-6.394-6.394s2.864-6.393 6.394-6.393c3.531 9.99e-4 6.39 2.864 6.389 6.394z"/>
 <path d="m86.863 109.65c0.002998 10.59-8.583 19.178-19.174 19.177-10.591 0-19.175-8.589-19.172-19.179-0.001999-10.591 8.583-19.178 19.174-19.177 10.591 9.99e-4 19.176 8.588 19.172 19.179z" fill="#fff"/>
 <path d="m78.874 113.04c0.001999 3.53-2.86 6.392-6.391 6.392s-6.393-2.862-6.391-6.393c-9.99e-4 -3.53 2.861-6.394 6.391-6.394 3.531 9.99e-4 6.392 2.865 6.391 6.395z"/>
 <path d="m120.76 169.33c-1.939 3.361-5.499 4.938-7.949 3.522-2.451-1.414-2.863-5.286-0.922-8.646 1.939-3.361 5.498-4.938 7.949-3.523s2.865 5.286 0.922 8.647z"/>
 <path d="m93.067 169.33c1.939 3.361 5.5 4.94 7.949 3.524 2.451-1.414 2.865-5.286 0.924-8.646-1.94-3.361-5.5-4.94-7.95-3.525s-2.864 5.286-0.923 8.647z"/>
 <path d="m113.87 154.62c4.369-4.641-3.99-27.475-7.449-25.352s-9.904 19.881-6.922 24.582c2.806 4.424 9.773 5.65 14.371 0.77z" fill="#fff"/>
 <path d="m113.86 154.62c4.37-4.642-3.992-27.491-7.451-25.368-0.333 0.204-0.68301 0.558-1.059 1.025 3.671 0.114 9.196 21.993 4.597 26.037-0.63 0.554-1.299 1.01-1.973 1.372 2.068-0.25299 4.143-1.217 5.886-3.066z" fill-opacity=".314"/>
 <path d="m125.61 68.875c-4.295-9.52 20.842-40.438 25.069-35.303 4.227 5.133 4.738 36.085-2.391 41.779-6.707 5.356-18.159 3.54-22.678-6.476z" fill="#fff"/>
 <path d="m88.222 68.875c4.296-9.52-20.841-40.438-25.067-35.303-4.227 5.133-4.738 36.085 2.391 41.779 6.706 5.356 18.156 3.54 22.676-6.476z" fill="#fff"/>
 <path d="m88.217 68.887c4.295-9.52-20.852-40.463-25.079-35.328-0.407 0.492-0.759 1.228-1.093 2.152 5.749-1.78 25.98 29.171 21.012 37.891-0.68 1.193-1.475 2.257-2.323 3.178 3.069-1.497 5.768-4.097 7.483-7.893z" fill-opacity=".314"/>
</svg>
