<?xml version="1.0" encoding="UTF-8" standalone="no"?>
<!-- Created with Inkscape (http://www.inkscape.org/) -->

<svg
   xmlns:dc="http://purl.org/dc/elements/1.1/"
   xmlns:cc="http://creativecommons.org/ns#"
   xmlns:rdf="http://www.w3.org/1999/02/22-rdf-syntax-ns#"
   xmlns:svg="http://www.w3.org/2000/svg"
   xmlns="http://www.w3.org/2000/svg"
   xmlns:sodipodi="http://sodipodi.sourceforge.net/DTD/sodipodi-0.dtd"
   xmlns:inkscape="http://www.inkscape.org/namespaces/inkscape"
   version="1.1"
   id="svg2"
   xml:space="preserve"
   width="523.49335"
   height="324.44"
   viewBox="0 0 523.49335 324.44"
   sodipodi:docname="fig-4-15.svg"
   inkscape:version="0.92.3 (2405546, 2018-03-11)"><metadata
     id="metadata8"><rdf:RDF><cc:Work
         rdf:about=""><dc:format>image/svg+xml</dc:format><dc:type
           rdf:resource="http://purl.org/dc/dcmitype/StillImage" /><dc:title></dc:title></cc:Work></rdf:RDF></metadata><defs
     id="defs6" /><sodipodi:namedview
     pagecolor="#ffffff"
     bordercolor="#666666"
     borderopacity="1"
     objecttolerance="10"
     gridtolerance="10"
     guidetolerance="10"
     inkscape:pageopacity="0"
     inkscape:pageshadow="2"
     inkscape:window-width="1920"
     inkscape:window-height="1025"
     id="namedview4"
     showgrid="false"
     inkscape:zoom="2.0574183"
     inkscape:cx="212.05802"
     inkscape:cy="160.9927"
     inkscape:window-x="0"
     inkscape:window-y="27"
     inkscape:window-maximized="1"
     inkscape:current-layer="g12" /><g
     id="g10"
     inkscape:groupmode="layer"
     inkscape:label="ink_ext_XXXXXX"
     transform="matrix(1.3333333,0,0,-1.3333333,0,324.44)"><g
       id="g12"
       transform="scale(0.1)"><path
         d="m 571.023,2301.63 v -198.45 l 57.723,-73.19 -57.723,-73.17 v -104.11 -104.07 l 235.098,152.51 v 65.12 65.12 65.13 65.14 z"
         style="fill:#ffffff;stroke:#231f20;stroke-width:5;stroke-linecap:butt;stroke-linejoin:miter;stroke-miterlimit:4;stroke-dasharray:none;stroke-opacity:1;fill-opacity:1"
         id="path14"
         inkscape:connector-curvature="0" /><path
         d="m 2684.08,415.75 c 0,-110.93 -62.24,-200.859 -139.05,-200.859 -76.8,0 -139.08,89.929 -139.08,200.859 0,110.93 62.28,200.871 139.08,200.871 76.81,0 139.05,-89.941 139.05,-200.871 z"
         style="fill:#ffffff;stroke:#231f20;stroke-width:5;stroke-linecap:butt;stroke-linejoin:miter;stroke-miterlimit:4;stroke-dasharray:none;stroke-opacity:1;fill-opacity:1"
         id="path16"
         inkscape:connector-curvature="0" /><path
         d="m 784.063,860.23 h -418.5 v 605.49 h 418.5 z"
         style="fill:#ffffff;stroke:#231f20;stroke-width:5;stroke-linecap:butt;stroke-linejoin:miter;stroke-miterlimit:4;stroke-dasharray:none;stroke-opacity:1;fill-opacity:1"
         id="path18"
         inkscape:connector-curvature="0" /><path
         d="m 2551.02,1681.75 c 0,-77.5 -48.86,-140.32 -109.14,-140.32 -60.25,0 -109.12,62.82 -109.12,140.32 0,77.5 48.87,140.32 109.12,140.32 60.28,0 109.14,-62.82 109.14,-140.32 z"
         style="fill:#ffffff;stroke:#231f20;stroke-width:5;stroke-linecap:butt;stroke-linejoin:miter;stroke-miterlimit:4;stroke-dasharray:none;stroke-opacity:1;fill-opacity:1"
         id="path20"
         inkscape:connector-curvature="0" /><path
         d="m 2559.64,1395.19 v -198.44 l 57.71,-73.19 -57.71,-73.17 V 946.281 842.211 l 389.18,152.488 v 65.131 65.13 65.13 65.13 z"
         style="fill:#ffffff;stroke:#231f20;stroke-width:5;stroke-linecap:butt;stroke-linejoin:miter;stroke-miterlimit:4;stroke-dasharray:none;stroke-opacity:1;fill-opacity:1"
         id="path22"
         inkscape:connector-curvature="0" /><path
         d="m 2621.5,2130.61 v -198.42 l 57.73,-73.2 -57.73,-73.17 v -104.11 -104.08 l 389.19,152.51 v 65.12 65.13 65.13 65.12 z"
         style="fill:#ffffff;stroke:#231f20;stroke-width:5;stroke-linecap:butt;stroke-linejoin:miter;stroke-miterlimit:4;stroke-dasharray:none;stroke-opacity:1;fill-opacity:1"
         id="path24"
         inkscape:connector-curvature="0" /><path
         d="m 2149.81,716.34 h -568.63 v 804.57 h 568.63 V 1420.33 1319.76 1219.19 1118.61 1018.05 917.469 816.891 716.34"
         style="fill:#ffffff;fill-opacity:1;fill-rule:nonzero;stroke:none"
         id="path26"
         inkscape:connector-curvature="0" /><path
         d="m 2149.81,716.34 h -568.63 v 804.57 h 568.63 V 1420.33 1319.76 1219.19 1118.61 1018.05 917.469 816.891 Z"
         style="fill:#ffffff;stroke:#231f20;stroke-width:5;stroke-linecap:butt;stroke-linejoin:miter;stroke-miterlimit:4;stroke-dasharray:none;stroke-opacity:1;fill-opacity:1"
         id="path28"
         inkscape:connector-curvature="0" /><g
         id="g30"
         transform="scale(10)"><text
           transform="matrix(1,0,0,-1,161.285,144.179)"
           style="font-variant:normal;font-weight:normal;font-size:7px;font-family:ArialMT;-inkscape-font-specification:ArialMT;writing-mode:lr-tb;fill:#231f20;fill-opacity:1;fill-rule:nonzero;stroke:none"
           id="text36"><tspan
             x="0 5.0539999 8.9460001 12.838"
             y="0"
             sodipodi:role="line"
             id="tspan32">Read</tspan><tspan
             x="0 2.3310001 6.223 10.115 11.669 15.169 17.115 21.007 23.337999 25.284"
             y="7.2585902"
             sodipodi:role="line"
             id="tspan34">register 1</tspan></text>
</g><path
         d="M 3564.36,544.539 H 3083.79 V 1261 h 480.57 v -89.56 -89.55 -89.562 -89.558 -89.559 -89.563 -89.546 z"
         style="fill:#ffffff;stroke:#231f20;stroke-width:5;stroke-linecap:butt;stroke-linejoin:miter;stroke-miterlimit:4;stroke-dasharray:none;stroke-opacity:1;fill-opacity:1"
         id="path38"
         inkscape:connector-curvature="0" /><g
         id="g40"
         transform="scale(10)"><text
           transform="matrix(1,0,0,-1,310.906,68.1578)"
           style="font-variant:normal;font-weight:normal;font-size:7px;font-family:ArialMT;-inkscape-font-specification:ArialMT;writing-mode:lr-tb;fill:#231f20;fill-opacity:1;fill-rule:nonzero;stroke:none"
           id="text46"><tspan
             x="0 6.4812417 8.8122416 10.367902 12.312242"
             y="0"
             sodipodi:role="line"
             id="tspan42">Write</tspan><tspan
             x="0 3.8935626 7.7861485 9.7314644"
             y="6.9507799"
             sodipodi:role="line"
             id="tspan44">data</tspan></text>
<text
           transform="matrix(1,0,0,-1,179.915,74.80002)"
           style="font-variant:normal;font-weight:bold;font-size:7px;font-family:Arial;-inkscape-font-specification:Arial-BoldMT;writing-mode:lr-tb;fill:#231f20;fill-opacity:1;fill-rule:nonzero;stroke:none"
           id="text54"><tspan
             x="0 5.0539999 8.9460001 13.223 15.169 19.061001 21.392 25.284 28.007"
             y="0"
             sodipodi:role="line"
             id="tspan48">Registers</tspan><tspan
             x="82.601196 87.65686 91.932251"
             y="-34.853901"
             sodipodi:role="line"
             id="tspan50">ALU</tspan><tspan
             x="88.367996 93.42366 97.699051"
             y="-108.5219"
             sodipodi:role="line"
             id="tspan52">Add</tspan></text>
</g><path
         d="m 2149.81,1319.76 h 373.25"
         style="fill:none;stroke:#231f20;stroke-width:7.5;stroke-linecap:butt;stroke-linejoin:miter;stroke-miterlimit:4;stroke-dasharray:none;stroke-opacity:1"
         id="path56"
         inkscape:connector-curvature="0" /><path
         d="m 2532.05,1325.91 c -9.92,3 -16.37,5.76 -24.33,8.95 v -30.26 c 2.86,1.35 14.41,5.95 24.33,8.95 10.62,3.2 20.24,5.4 26.48,6.18 -6.24,0.78 -15.86,2.98 -26.48,6.18"
         style="fill:#231f20;fill-opacity:1;fill-rule:nonzero;stroke:none"
         id="path58"
         inkscape:connector-curvature="0" /><path
         d="m 2467.61,946.301 55.45,0.008"
         style="fill:none;stroke:#231f20;stroke-width:7.5;stroke-linecap:butt;stroke-linejoin:miter;stroke-miterlimit:4;stroke-dasharray:none;stroke-opacity:1"
         id="path60"
         inkscape:connector-curvature="0" /><path
         d="m 2532.22,952.469 c -9.93,2.992 -16.37,5.75 -24.33,8.941 v -30.262 c 2.85,1.34 14.4,5.954 24.33,8.954 10.61,3.199 20.23,5.398 26.47,6.179 -6.24,0.778 -15.86,2.981 -26.47,6.188"
         style="fill:#231f20;fill-opacity:1;fill-rule:nonzero;stroke:none"
         id="path62"
         inkscape:connector-curvature="0" /><path
         d="m 2948.82,1059.83 h 98.38"
         style="fill:none;stroke:#231f20;stroke-width:7.5;stroke-linecap:butt;stroke-linejoin:miter;stroke-miterlimit:4;stroke-dasharray:none;stroke-opacity:1"
         id="path64"
         inkscape:connector-curvature="0" /><path
         d="m 3055.01,1065.98 c -9.92,3 -16.37,5.75 -24.33,8.95 v -30.27 c 2.85,1.35 14.41,5.96 24.33,8.95 10.61,3.21 20.24,5.41 26.48,6.19 -6.24,0.78 -15.87,2.97 -26.48,6.18"
         style="fill:#231f20;fill-opacity:1;fill-rule:nonzero;stroke:none"
         id="path66"
         inkscape:connector-curvature="0" /><path
         d="m 2948.82,1209.14 h 69.37"
         style="fill:none;stroke:#231f20;stroke-width:5;stroke-linecap:butt;stroke-linejoin:miter;stroke-miterlimit:4;stroke-dasharray:none;stroke-opacity:1"
         id="path68"
         inkscape:connector-curvature="0" /><path
         d="m 3036.03,1214.26 c -8.26,2.5 -13.63,4.79 -20.27,7.46 v -25.22 c 2.38,1.12 12.01,4.96 20.27,7.46 8.85,2.67 16.87,4.49 22.08,5.15 -5.21,0.65 -13.23,2.48 -22.08,5.15"
         style="fill:#231f20;fill-opacity:1;fill-rule:nonzero;stroke:none"
         id="path70"
         inkscape:connector-curvature="0" /><path
         d="m 3564.36,1059.84 h 106.69"
         style="fill:none;stroke:#231f20;stroke-width:5;stroke-linecap:butt;stroke-linejoin:miter;stroke-miterlimit:4;stroke-dasharray:none;stroke-opacity:1"
         id="path72"
         inkscape:connector-curvature="0" /><path
         d="m 3674.84,1064.97 c -8.26,2.49 -13.64,4.78 -20.26,7.45 v -25.22 c 2.36,1.12 12,4.96 20.26,7.46 8.85,2.67 16.87,4.49 22.08,5.15 -5.21,0.65 -13.23,2.48 -22.08,5.16"
         style="fill:#231f20;fill-opacity:1;fill-rule:nonzero;stroke:none"
         id="path74"
         inkscape:connector-curvature="0" /><path
         d="M 2149.81,1040.45 H 2317.7"
         style="fill:none;stroke:#231f20;stroke-width:7.5;stroke-linecap:butt;stroke-linejoin:miter;stroke-miterlimit:4;stroke-dasharray:none;stroke-opacity:1"
         id="path76"
         inkscape:connector-curvature="0" /><path
         d="m 2326.86,1046.61 c -9.93,2.99 -16.37,5.75 -24.33,8.94 v -30.26 c 2.85,1.35 14.4,5.95 24.33,8.94 10.61,3.22 20.24,5.41 26.47,6.19 -6.23,0.79 -15.86,2.97 -26.47,6.19"
         style="fill:#231f20;fill-opacity:1;fill-rule:nonzero;stroke:none"
         id="path78"
         inkscape:connector-curvature="0" /><path
         d="m 3010.69,1865.77 165.31,0.02"
         style="fill:none;stroke:#231f20;stroke-width:7.5;stroke-linecap:butt;stroke-linejoin:miter;stroke-miterlimit:4;stroke-dasharray:none;stroke-opacity:1"
         id="path80"
         inkscape:connector-curvature="0" /><path
         d="m 3184.63,1871.95 c -9.92,2.99 -16.37,5.75 -24.33,8.95 v -30.27 c 2.85,1.35 14.42,5.96 24.33,8.95 10.61,3.21 20.24,5.41 26.48,6.19 -6.24,0.78 -15.87,2.98 -26.48,6.18"
         style="fill:#231f20;fill-opacity:1;fill-rule:nonzero;stroke:none"
         id="path82"
         inkscape:connector-curvature="0" /><g
         id="g84"
         transform="scale(10)"><text
           transform="matrix(1,0,0,-1,277.323,119.009)"
           style="font-variant:normal;font-weight:normal;font-size:7px;font-family:ArialMT;-inkscape-font-specification:ArialMT;writing-mode:lr-tb;fill:#231f20;fill-opacity:1;fill-rule:nonzero;stroke:none"
           id="text88"><tspan
             x="0 4.2753887 8.168951 10.499951"
             y="0"
             sodipodi:role="line"
             id="tspan86">Zero</tspan></text>
</g><g
         id="g90"
         transform="scale(10)"><text
           transform="matrix(1,0,0,-1,315.474,33.827)"
           style="font-variant:normal;font-weight:normal;font-size:7px;font-family:ArialMT;-inkscape-font-specification:ArialMT;writing-mode:lr-tb;fill:#00adef;fill-opacity:1;fill-rule:nonzero;stroke:none"
           id="text94"><tspan
             x="0 5.8309999 9.7245626 15.554635 20.610294 24.503834 28.39642"
             y="0"
             sodipodi:role="line"
             id="tspan92">MemRead</tspan></text>
</g><path
         d="M 3316.18,544.539 V 417.609"
         style="fill:none;stroke:#00adef;stroke-width:5;stroke-linecap:butt;stroke-linejoin:miter;stroke-miterlimit:4;stroke-dasharray:none;stroke-opacity:1"
         id="path96"
         inkscape:connector-curvature="0" /><g
         id="g98"
         transform="scale(10)"><text
           transform="matrix(1,0,0,-1,315.676,140.013)"
           style="font-variant:normal;font-weight:normal;font-size:7px;font-family:ArialMT;-inkscape-font-specification:ArialMT;writing-mode:lr-tb;fill:#00adef;fill-opacity:1;fill-rule:nonzero;stroke:none"
           id="text102"><tspan
             x="0 5.8309999 9.7235861 15.554641 22.042913 24.373915 25.929575 27.873915"
             y="0"
             sodipodi:role="line"
             id="tspan100">MemWrite</tspan></text>
</g><path
         d="M 3316.18,1372.45 V 1260.99"
         style="fill:none;stroke:#00adef;stroke-width:5;stroke-linecap:butt;stroke-linejoin:miter;stroke-miterlimit:4;stroke-dasharray:none;stroke-opacity:1"
         id="path104"
         inkscape:connector-curvature="0" /><g
         id="g106"
         transform="scale(10)"><text
           transform="matrix(1,0,0,-1,171.276,166.373)"
           style="font-variant:normal;font-weight:normal;font-size:7px;font-family:ArialMT;-inkscape-font-specification:ArialMT;writing-mode:lr-tb;fill:#00adef;fill-opacity:1;fill-rule:nonzero;stroke:none"
           id="text110"><tspan
             x="0 5.0539999 8.9460001 12.841015 19.328909 21.65991 23.213909 25.15991"
             y="0"
             sodipodi:role="line"
             id="tspan108">RegWrite</tspan></text>
</g><path
         d="M 1858.6,1632.35 V 1520.9"
         style="fill:none;stroke:#00adef;stroke-width:5;stroke-linecap:butt;stroke-linejoin:miter;stroke-miterlimit:4;stroke-dasharray:none;stroke-opacity:1"
         id="path112"
         inkscape:connector-curvature="0" /><g
         id="g114"
         transform="scale(10)"><text
           transform="matrix(1,0,0,-1,316.813,234.761)"
           style="font-variant:normal;font-weight:normal;font-size:7px;font-family:ArialMT;-inkscape-font-specification:ArialMT;writing-mode:lr-tb;fill:#00adef;fill-opacity:1;fill-rule:nonzero;stroke:none"
           id="text118"><tspan
             x="0 4.6690001 9.7236834 14.393611 16.723684"
             y="0"
             sodipodi:role="line"
             id="tspan116">PCSrc</tspan></text>
</g><path
         d="M 3269.25,2321.43 V 2246.3"
         style="fill:none;stroke:#00adef;stroke-width:5;stroke-linecap:butt;stroke-linejoin:miter;stroke-miterlimit:4;stroke-dasharray:none;stroke-opacity:1"
         id="path120"
         inkscape:connector-curvature="0" /><g
         id="g122"
         transform="scale(10)"><text
           transform="matrix(1,0,0,-1,358.39,121.891)"
           style="font-variant:normal;font-weight:normal;font-size:7px;font-family:ArialMT;-inkscape-font-specification:ArialMT;writing-mode:lr-tb;fill:#00adef;fill-opacity:1;fill-rule:nonzero;stroke:none"
           id="text126"><tspan
             x="0 5.8309999 9.7245626 15.554635 17.49995 21.392536 26.448174 30.341736"
             y="0"
             sodipodi:role="line"
             id="tspan124">MemtoReg</tspan></text>
</g><path
         d="M 3756.2,1188.17 V 1117.5"
         style="fill:none;stroke:#00adef;stroke-width:5;stroke-linecap:butt;stroke-linejoin:miter;stroke-miterlimit:4;stroke-dasharray:none;stroke-opacity:1"
         id="path128"
         inkscape:connector-curvature="0" /><path
         d="m 2410.95,1181.66 v -79.43"
         style="fill:none;stroke:#00adef;stroke-width:5;stroke-linecap:butt;stroke-linejoin:miter;stroke-miterlimit:4;stroke-dasharray:none;stroke-opacity:1"
         id="path130"
         inkscape:connector-curvature="0" /><g
         id="g132"
         transform="scale(10)"><text
           transform="matrix(1,0,0,-1,195.084,133.594)"
           style="font-variant:normal;font-weight:normal;font-size:7px;font-family:ArialMT;-inkscape-font-specification:ArialMT;writing-mode:lr-tb;fill:#231f20;fill-opacity:1;fill-rule:nonzero;stroke:none"
           id="text142"><tspan
             x="0 5.0539999 8.9460001 12.838"
             y="0"
             sodipodi:role="line"
             id="tspan134">Read</tspan><tspan
             x="-2.7300799 1.16192 5.0539198 6.9999199 10.89192 12.83792"
             y="6.95117"
             sodipodi:role="line"
             id="tspan136">data 1</tspan><tspan
             x="0 5.0539999 8.9460001 12.838"
             y="27.87417"
             sodipodi:role="line"
             id="tspan138">Read</tspan><tspan
             x="-2.7300799 1.16192 5.0539198 6.9999199 10.89192 12.83792"
             y="34.824951"
             sodipodi:role="line"
             id="tspan140">data 2</tspan></text>
</g><path
         d="M 1698.28,452.34 H 834.051 v 967.65 h 710.529"
         style="fill:none;stroke:#231f20;stroke-width:7.5;stroke-linecap:butt;stroke-linejoin:miter;stroke-miterlimit:4;stroke-dasharray:none;stroke-opacity:1"
         id="path144"
         inkscape:connector-curvature="0" /><path
         d="m 1707.01,458.488 c -9.92,3 -16.38,5.75 -24.33,8.961 v -30.277 c 2.86,1.359 14.41,5.957 24.33,8.949 10.62,3.207 20.24,5.41 26.49,6.188 -6.25,0.781 -15.87,2.98 -26.49,6.179"
         style="fill:#231f20;fill-opacity:1;fill-rule:nonzero;stroke:none"
         id="path146"
         inkscape:connector-curvature="0" /><path
         d="m 1551.91,1426.13 c -9.92,3 -16.37,5.76 -24.33,8.95 v -30.26 c 2.86,1.35 14.41,5.95 24.33,8.95 10.62,3.2 20.24,5.4 26.49,6.18 -6.25,0.78 -15.87,2.98 -26.49,6.18"
         style="fill:#231f20;fill-opacity:1;fill-rule:nonzero;stroke:none"
         id="path148"
         inkscape:connector-curvature="0" /><path
         d="m 1999.29,453.559 c 0,-113.289 -59.93,-205.149 -133.79,-205.149 -73.9,0 -133.8,91.86 -133.8,205.149 0,113.3 59.9,205.16 133.8,205.16 73.86,0 133.79,-91.86 133.79,-205.16 z"
         style="fill:#ffffff;stroke:#231f20;stroke-width:5;stroke-linecap:butt;stroke-linejoin:miter;stroke-miterlimit:4;stroke-dasharray:none;stroke-opacity:1;fill-opacity:1"
         id="path150"
         inkscape:connector-curvature="0" /><g
         id="g152"
         transform="scale(10)"><text
           transform="matrix(1,0,0,-1,179.353,46.4719)"
           style="font-variant:normal;font-weight:bold;font-size:7px;font-family:Arial;-inkscape-font-specification:Arial-BoldMT;writing-mode:lr-tb;fill:#231f20;fill-opacity:1;fill-rule:nonzero;stroke:none"
           id="text158"><tspan
             x="0 1.946 8.1689997"
             y="0"
             sodipodi:role="line"
             id="tspan154">Imm</tspan><tspan
             x="0.389844 5.835844 9.7278442"
             y="8.3999996"
             sodipodi:role="line"
             id="tspan156">Gen</tspan></text>
</g><path
         d="m 1580.23,481.82 27.99,-29.48 28,-29.449"
         style="fill:none;stroke:#231f20;stroke-width:5;stroke-linecap:butt;stroke-linejoin:miter;stroke-miterlimit:4;stroke-dasharray:none;stroke-opacity:1"
         id="path160"
         inkscape:connector-curvature="0" /><path
         d="m 1999.45,452.328 h 260.07 v 376 l 58.18,0.031"
         style="fill:none;stroke:#231f20;stroke-width:7.5;stroke-linecap:butt;stroke-linejoin:miter;stroke-miterlimit:4;stroke-dasharray:none;stroke-opacity:1"
         id="path162"
         inkscape:connector-curvature="0" /><path
         d="m 2327.99,834.512 c -9.92,2.988 -16.37,5.75 -24.33,8.937 l 0.01,-30.258 c 2.84,1.348 14.41,5.95 24.32,8.95 10.61,3.218 20.24,5.41 26.48,6.187 -6.24,0.793 -15.87,2.973 -26.48,6.184"
         style="fill:#231f20;fill-opacity:1;fill-rule:nonzero;stroke:none"
         id="path164"
         inkscape:connector-curvature="0" /><path
         d="m 2068.79,481.789 28,-29.461 27.99,-29.469"
         style="fill:none;stroke:#231f20;stroke-width:5;stroke-linecap:butt;stroke-linejoin:miter;stroke-miterlimit:4;stroke-dasharray:none;stroke-opacity:1"
         id="path166"
         inkscape:connector-curvature="0" /><g
         id="g168"
         transform="scale(10)"><text
           transform="matrix(1,0,0,-1,157.416,50.1691)"
           style="font-variant:normal;font-weight:normal;font-size:7px;font-family:ArialMT;-inkscape-font-specification:ArialMT;writing-mode:lr-tb;fill:#231f20;fill-opacity:1;fill-rule:nonzero;stroke:none"
           id="text176"><tspan
             x="0 3.8930621 49.296112 53.189674"
             y="0"
             sodipodi:role="line"
             id="tspan170">3264</tspan><tspan
             x="-114.466 -112.52 -108.628 -105.128 -103.182 -100.851 -96.959 -93.459 -91.513 -89.959 -86.067001"
             y="-64.666"
             sodipodi:role="line"
             id="tspan172">Instruction</tspan><tspan
             x="-99.689003 -97.742996 -93.850998 -89.959 -87.627998 -83.736"
             y="-57.714828"
             sodipodi:role="line"
             id="tspan174">[31-0]</tspan></text>
</g><path
         d="M 834.965,1249.22 H 1545.56"
         style="fill:none;stroke:#231f20;stroke-width:7.5;stroke-linecap:butt;stroke-linejoin:miter;stroke-miterlimit:4;stroke-dasharray:none;stroke-opacity:1"
         id="path178"
         inkscape:connector-curvature="0" /><path
         d="m 1551.91,1255.37 c -9.92,2.99 -16.37,5.76 -24.33,8.95 v -30.27 c 2.86,1.35 14.41,5.95 24.33,8.96 10.62,3.2 20.24,5.4 26.49,6.17 -6.25,0.79 -15.87,2.99 -26.49,6.19"
         style="fill:#231f20;fill-opacity:1;fill-rule:nonzero;stroke:none"
         id="path180"
         inkscape:connector-curvature="0" /><path
         d="M 834.965,1011.92 H 1534.12"
         style="fill:none;stroke:#231f20;stroke-width:7.5;stroke-linecap:butt;stroke-linejoin:miter;stroke-miterlimit:4;stroke-dasharray:none;stroke-opacity:1"
         id="path182"
         inkscape:connector-curvature="0" /><path
         d="m 1544.16,1018.07 c -12.81,3 -21.16,5.75 -31.44,8.95 v -30.27 c 3.69,1.352 18.63,5.96 31.44,8.95 13.74,3.21 26.17,5.41 34.23,6.19 -8.06,0.78 -20.49,2.97 -34.23,6.18"
         style="fill:#231f20;fill-opacity:1;fill-rule:nonzero;stroke:none"
         id="path184"
         inkscape:connector-curvature="0" /><path
         d="m 3811.17,945.949 h 46.86 V 3.73828 H 1410.95 V 816.93 h 130.14"
         style="fill:none;stroke:#231f20;stroke-width:7.5;stroke-linecap:butt;stroke-linejoin:miter;stroke-miterlimit:4;stroke-dasharray:none;stroke-opacity:1"
         id="path186"
         inkscape:connector-curvature="0" /><path
         d="m 1553.97,823.078 c -9.92,3 -16.37,5.75 -24.33,8.953 v -30.269 c 2.86,1.359 14.41,5.957 24.33,8.949 10.62,3.211 20.24,5.41 26.49,6.187 -6.25,0.782 -15.87,2.981 -26.49,6.18"
         style="fill:#231f20;fill-opacity:1;fill-rule:nonzero;stroke:none"
         id="path188"
         inkscape:connector-curvature="0" /><path
         d="m 834.051,1133.22 h -50"
         style="fill:none;stroke:#231f20;stroke-width:7.5;stroke-linecap:butt;stroke-linejoin:miter;stroke-miterlimit:4;stroke-dasharray:none;stroke-opacity:1"
         id="path190"
         inkscape:connector-curvature="0" /><g
         id="g192"
         transform="scale(10)"><text
           transform="matrix(1,0,0,-1,278.1,107.51)"
           style="font-variant:normal;font-weight:normal;font-size:7px;font-family:ArialMT;-inkscape-font-specification:ArialMT;writing-mode:lr-tb;fill:#231f20;fill-opacity:1;fill-rule:nonzero;stroke:none"
           id="text198"><tspan
             x="0 4.6690001 8.5615864"
             y="0"
             sodipodi:role="line"
             id="tspan194">ALU</tspan><tspan
             x="-3.5 -1.169 2.7235858 6.2235861 10.117148 11.672809"
             y="6.95117"
             sodipodi:role="line"
             id="tspan196">result</tspan></text>
<text
           transform="matrix(1,0,0,-1,64.439,201.33083)"
           style="font-variant:normal;font-weight:bold;font-size:7px;font-family:Arial;-inkscape-font-specification:Arial-BoldMT;writing-mode:lr-tb;fill:#231f20;fill-opacity:1;fill-rule:nonzero;stroke:none"
           id="text202"><tspan
             x="0 5.0539999 9.3310003"
             y="0"
             sodipodi:role="line"
             id="tspan200">Add</tspan></text>
<text
           transform="matrix(1,0,0,-1,285.407,185.06363)"
           style="font-variant:normal;font-weight:normal;font-size:7px;font-family:ArialMT;-inkscape-font-specification:ArialMT;writing-mode:lr-tb;fill:#231f20;fill-opacity:1;fill-rule:nonzero;stroke:none"
           id="text206"><tspan
             x="0 4.6690001 8.5625629"
             y="0"
             sodipodi:role="line"
             id="tspan204">Sum</tspan></text>
</g><path
         d="m 2467.61,828.328 c 0,-33.988 -25.5,-61.797 -56.66,-61.797 -31.16,0 -56.65,27.809 -56.65,61.797 v 212.092 c 0,34 25.49,61.81 56.65,61.81 31.16,0 56.66,-27.81 56.66,-61.81 z"
         style="fill:#ffffff;stroke:#231f20;stroke-width:5;stroke-linecap:butt;stroke-linejoin:miter;stroke-miterlimit:4;stroke-dasharray:none;stroke-opacity:1;fill-opacity:1"
         id="path208"
         inkscape:connector-curvature="0" /><g
         id="g210"
         transform="scale(10)"><text
           transform="matrix(1,0,0,-1,238.182,96.6078)"
           style="font-variant:normal;font-weight:bold;font-size:7px;font-family:Arial;-inkscape-font-specification:Arial-BoldMT;writing-mode:lr-tb;fill:#231f20;fill-opacity:1;fill-rule:nonzero;stroke:none"
           id="text218"><tspan
             x="0"
             y="0"
             id="tspan212">M</tspan><tspan
             x="0.77695298"
             y="5.5859399"
             id="tspan214">u</tspan><tspan
             x="0.96484399"
             y="11.17188"
             id="tspan216">x</tspan></text>
</g><path
         d="m 3812.87,843.609 c 0,-34 -25.51,-61.8 -56.67,-61.8 -31.16,0 -56.64,27.8 -56.64,61.8 v 212.101 c 0,34 25.48,61.79 56.64,61.79 31.16,0 56.67,-27.79 56.67,-61.79 z"
         style="fill:#ffffff;stroke:#231f20;stroke-width:5;stroke-linecap:butt;stroke-linejoin:miter;stroke-miterlimit:4;stroke-dasharray:none;stroke-opacity:1;fill-opacity:1"
         id="path220"
         inkscape:connector-curvature="0" /><g
         id="g222"
         transform="scale(10)"><text
           transform="matrix(1,0,0,-1,372.708,98.1371)"
           style="font-variant:normal;font-weight:bold;font-size:7px;font-family:Arial;-inkscape-font-specification:Arial-BoldMT;writing-mode:lr-tb;fill:#231f20;fill-opacity:1;fill-rule:nonzero;stroke:none"
           id="text230"><tspan
             x="0"
             y="0"
             id="tspan224">M</tspan><tspan
             x="0.77695298"
             y="5.5859399"
             id="tspan226">u</tspan><tspan
             x="0.96601599"
             y="11.17227"
             id="tspan228">x</tspan></text>
</g><path
         d="m 3325.89,1865.77 c 0,-34 -25.49,-61.81 -56.64,-61.81 -31.16,0 -56.66,27.81 -56.66,61.81 v 318.73 c 0,33.98 25.5,61.8 56.66,61.8 31.15,0 56.64,-27.82 56.64,-61.8 z"
         style="fill:#ffffff;stroke:#231f20;stroke-width:5;stroke-linecap:butt;stroke-linejoin:miter;stroke-miterlimit:4;stroke-dasharray:none;stroke-opacity:1;fill-opacity:1"
         id="path232"
         inkscape:connector-curvature="0" /><g
         id="g234"
         transform="scale(10)"><text
           transform="matrix(1,0,0,-1,324.009,205.918)"
           style="font-variant:normal;font-weight:bold;font-size:7px;font-family:Arial;-inkscape-font-specification:Arial-BoldMT;writing-mode:lr-tb;fill:#231f20;fill-opacity:1;fill-rule:nonzero;stroke:none"
           id="text242"><tspan
             x="0"
             y="0"
             id="tspan236">M</tspan><tspan
             x="0.77695298"
             y="5.5859399"
             id="tspan238">u</tspan><tspan
             x="0.96601599"
             y="11.17188"
             id="tspan240">x</tspan></text>
</g><g
         id="g244"
         transform="scale(10)"><text
           transform="matrix(1,0,0,-1,229.033,121.231)"
           style="font-variant:normal;font-weight:normal;font-size:7px;font-family:ArialMT;-inkscape-font-specification:ArialMT;writing-mode:lr-tb;fill:#00adef;fill-opacity:1;fill-rule:nonzero;stroke:none"
           id="text248"><tspan
             x="0 4.6690001 8.5615864 13.617246 18.286245 20.617247"
             y="0"
             sodipodi:role="line"
             id="tspan246">ALUSrc</tspan></text>
</g><g
         id="g250"
         transform="scale(10)"><text
           transform="matrix(1,0,0,-1,310.897,104.382)"
           style="font-variant:normal;font-weight:normal;font-size:7px;font-family:ArialMT;-inkscape-font-specification:ArialMT;writing-mode:lr-tb;fill:#231f20;fill-opacity:1;fill-rule:nonzero;stroke:none"
           id="text254"><tspan
             x="0 4.606256 8.4295063 12.252756 14.513492 18.336742 21.76721"
             y="0"
             sodipodi:role="line"
             id="tspan252">Address</tspan></text>
<text
           transform="matrix(1,0,0,-1,334.3341,73.0718)"
           style="font-variant:normal;font-weight:bold;font-size:7px;font-family:Arial;-inkscape-font-specification:Arial-BoldMT;writing-mode:lr-tb;fill:#231f20;fill-opacity:1;fill-rule:nonzero;stroke:none"
           id="text260"><tspan
             x="0 5.0556602 8.948246 11.279246"
             y="0"
             sodipodi:role="line"
             id="tspan256">Data</tspan><tspan
             x="-6.0339799 0.19063133 4.0832171 10.307829 14.583218 17.307829"
             y="6.9507799"
             sodipodi:role="line"
             id="tspan258">memory</tspan></text>
<text
           transform="matrix(1,0,0,-1,336.92434,108.07182)"
           style="font-variant:normal;font-weight:normal;font-size:7px;font-family:ArialMT;-inkscape-font-specification:ArialMT;writing-mode:lr-tb;fill:#231f20;fill-opacity:1;fill-rule:nonzero;stroke:none"
           id="text266"><tspan
             x="0 5.0556602 8.948246 12.840832"
             y="0"
             sodipodi:role="line"
             id="tspan262">Read</tspan><tspan
             x="3.10781 7.0003958 10.893958 12.838298"
             y="6.9507799"
             sodipodi:role="line"
             id="tspan264">data</tspan></text>
</g><path
         d="M 2995.29,1059.83 V 482.719 h 628.25 v 357.23 h 39.54"
         style="fill:none;stroke:#231f20;stroke-width:7.5;stroke-linecap:butt;stroke-linejoin:miter;stroke-miterlimit:4;stroke-dasharray:none;stroke-opacity:1"
         id="path268"
         inkscape:connector-curvature="0" /><path
         d="m 3670.78,846.102 c -9.92,3 -16.37,5.75 -24.33,8.937 v -30.258 c 2.86,1.348 14.41,5.957 24.33,8.938 10.62,3.222 20.25,5.422 26.49,6.199 -6.24,0.781 -15.87,2.973 -26.49,6.184"
         style="fill:#231f20;fill-opacity:1;fill-rule:nonzero;stroke:none"
         id="path270"
         inkscape:connector-curvature="0" /><path
         d="M 2207.31,1040.45 V 688.75 H 3047.2"
         style="fill:none;stroke:#231f20;stroke-width:7.5;stroke-linecap:butt;stroke-linejoin:miter;stroke-miterlimit:4;stroke-dasharray:none;stroke-opacity:1"
         id="path272"
         inkscape:connector-curvature="0" /><path
         d="m 3055.43,694.91 c -9.92,2.988 -16.37,5.75 -24.33,8.942 V 673.59 c 2.85,1.351 14.41,5.961 24.33,8.941 10.61,3.219 20.24,5.41 26.47,6.188 -6.23,0.793 -15.86,2.972 -26.47,6.191"
         style="fill:#231f20;fill-opacity:1;fill-rule:nonzero;stroke:none"
         id="path274"
         inkscape:connector-curvature="0" /><g
         id="g276"
         transform="scale(10)"><text
           transform="matrix(1,0,0,-1,236.41,169.606)"
           style="font-variant:normal;font-weight:bold;font-size:7px;font-family:Arial;-inkscape-font-specification:Arial-BoldMT;writing-mode:lr-tb;fill:#231f20;fill-opacity:1;fill-rule:nonzero;stroke:none"
           id="text282"><tspan
             x="0 4.6690001 8.9443884 10.889705 13.220705"
             y="0"
             sodipodi:role="line"
             id="tspan278">Shift</tspan><tspan
             x="-0.39101601 1.5543004 5.4468865 7.7778864 10.108887 12.054178"
             y="8.3996096"
             sodipodi:role="line"
             id="tspan280">left 1</tspan></text>
</g><path
         d="m 2259.72,828.328 v 853.412 l 36.45,0.03"
         style="fill:none;stroke:#231f20;stroke-width:7.5;stroke-linecap:butt;stroke-linejoin:miter;stroke-miterlimit:4;stroke-dasharray:none;stroke-opacity:1"
         id="path284"
         inkscape:connector-curvature="0" /><path
         d="m 2304.6,1687.93 c -9.92,2.99 -16.38,5.75 -24.34,8.94 l 0.02,-30.27 c 2.85,1.35 14.41,5.96 24.33,8.97 10.6,3.21 20.23,5.41 26.47,6.2 -6.24,0.77 -15.87,2.96 -26.48,6.16"
         style="fill:#231f20;fill-opacity:1;fill-rule:nonzero;stroke:none"
         id="path286"
         inkscape:connector-curvature="0" /><path
         d="m 2551.02,1681.75 h 33.89"
         style="fill:none;stroke:#231f20;stroke-width:7.5;stroke-linecap:butt;stroke-linejoin:miter;stroke-miterlimit:4;stroke-dasharray:none;stroke-opacity:1"
         id="path288"
         inkscape:connector-curvature="0" /><path
         d="m 2592.84,1687.89 c -9.92,3 -16.37,5.77 -24.32,8.95 v -30.25 c 2.85,1.34 14.4,5.94 24.32,8.95 10.62,3.19 20.24,5.4 26.48,6.17 -6.24,0.78 -15.86,2.99 -26.48,6.18"
         style="fill:#231f20;fill-opacity:1;fill-rule:nonzero;stroke:none"
         id="path290"
         inkscape:connector-curvature="0" /><g
         id="g292"
         transform="scale(10)"><text
           transform="matrix(1,0,0,-1,39.2715,183.146)"
           style="font-variant:normal;font-weight:normal;font-size:7px;font-family:ArialMT;-inkscape-font-specification:ArialMT;writing-mode:lr-tb;fill:#231f20;fill-opacity:1;fill-rule:nonzero;stroke:none"
           id="text300"><tspan
             x="0"
             y="0"
             id="tspan294">4</tspan><tspan
             x="0.45507801 5.509078 9.4010782 13.293078"
             y="43.617199"
             sodipodi:role="line"
             id="tspan296">Read</tspan><tspan
             x="0.45507801 4.3470778 8.2390776 12.131078 14.462078 18.354078 21.854078"
             y="50.567982"
             sodipodi:role="line"
             id="tspan298">address</tspan></text>
<text
           transform="matrix(1,0,0,-1,39.397672,96.89212)"
           style="font-variant:normal;font-weight:bold;font-size:7px;font-family:Arial;-inkscape-font-specification:Arial-BoldMT;writing-mode:lr-tb;fill:#231f20;fill-opacity:1;fill-rule:nonzero;stroke:none"
           id="text306"><tspan
             x="0 1.946 6.223 10.115 12.446 15.169 19.445999 23.337999 25.669001 27.615 31.892"
             y="0"
             sodipodi:role="line"
             id="tspan302">Instruction</tspan><tspan
             x="4.4730501 10.69605 14.58805 20.81105 25.088051 27.81105"
             y="6.95117"
             sodipodi:role="line"
             id="tspan304">memory</tspan></text>
</g><path
         d="M 237.449,1159.83 H 102.328 v 436.53 H 237.449 V 1378.1 Z"
         style="fill:#ffffff;stroke:#231f20;stroke-width:5;stroke-linecap:butt;stroke-linejoin:miter;stroke-miterlimit:4;stroke-dasharray:none;stroke-opacity:1;fill-opacity:1"
         id="path308"
         inkscape:connector-curvature="0" /><g
         id="g310"
         transform="scale(10)"><text
           transform="matrix(1,0,0,-1,12.1277,135.627)"
           style="font-variant:normal;font-weight:bold;font-size:7px;font-family:Arial;-inkscape-font-specification:Arial-BoldMT;writing-mode:lr-tb;fill:#231f20;fill-opacity:1;fill-rule:nonzero;stroke:none"
           id="text314"><tspan
             x="0 4.6690001"
             y="0"
             sodipodi:role="line"
             id="tspan312">PC</tspan></text>
</g><path
         d="m 237.449,1378.1 91.512,0.02"
         style="fill:none;stroke:#231f20;stroke-width:7.5;stroke-linecap:butt;stroke-linejoin:miter;stroke-miterlimit:4;stroke-dasharray:none;stroke-opacity:1"
         id="path316"
         inkscape:connector-curvature="0" /><path
         d="m 336.672,1384.27 c -9.926,2.99 -16.371,5.75 -24.332,8.95 l 0.008,-30.27 c 2.851,1.35 14.398,5.96 24.324,8.95 10.617,3.21 20.238,5.41 26.488,6.19 -6.25,0.78 -15.871,2.98 -26.488,6.18"
         style="fill:#231f20;fill-opacity:1;fill-rule:nonzero;stroke:none"
         id="path318"
         inkscape:connector-curvature="0" /><path
         d="m 277.711,1378.1 v 824.31 l 256.719,0.02"
         style="fill:none;stroke:#231f20;stroke-width:7.5;stroke-linecap:butt;stroke-linejoin:miter;stroke-miterlimit:4;stroke-dasharray:none;stroke-opacity:1"
         id="path320"
         inkscape:connector-curvature="0" /><path
         d="m 542.301,2208.58 c -9.922,2.99 -16.375,5.75 -24.332,8.95 l 0.008,-30.27 c 2.851,1.35 14.402,5.96 24.324,8.95 10.621,3.21 20.238,5.41 26.488,6.19 -6.25,0.78 -15.867,2.97 -26.488,6.18"
         style="fill:#231f20;fill-opacity:1;fill-rule:nonzero;stroke:none"
         id="path322"
         inkscape:connector-curvature="0" /><path
         d="m 3325.89,2031.39 h 77.46 v 398.19 H 3.75 V 1375.2 h 61.9883"
         style="fill:none;stroke:#231f20;stroke-width:7.5;stroke-linecap:butt;stroke-linejoin:miter;stroke-miterlimit:4;stroke-dasharray:none;stroke-opacity:1"
         id="path324"
         inkscape:connector-curvature="0" /><path
         d="m 73.9492,1381.35 c -9.9219,3 -16.3711,5.76 -24.332,8.95 v -30.26 c 2.8633,1.35 14.4101,5.95 24.332,8.95 10.6211,3.2 20.2383,5.4 26.4888,6.18 -6.2505,0.78 -15.8677,2.98 -26.4888,6.18"
         style="fill:#231f20;fill-opacity:1;fill-rule:nonzero;stroke:none"
         id="path326"
         inkscape:connector-curvature="0" /><g
         id="g328"
         transform="scale(10)"><text
           transform="matrix(1,0,0,-1,373.659,104.928)"
           style="font-variant:normal;font-weight:normal;font-size:7px;font-family:ArialMT;-inkscape-font-specification:ArialMT;writing-mode:lr-tb;fill:#231f20;fill-opacity:1;fill-rule:nonzero;stroke:none"
           id="text342"><tspan
             x="0"
             y="0"
             id="tspan330">1</tspan><tspan
             x="0"
             y="23.9473"
             id="tspan332">0</tspan><tspan
             x="-134.939"
             y="1.5473"
             id="tspan334">0</tspan><tspan
             x="-134.939"
             y="25.4946"
             id="tspan336">1</tspan><tspan
             x="-49.2519"
             y="-111.6914"
             id="tspan338">0</tspan><tspan
             x="-49.2519"
             y="-79.246902"
             id="tspan340">1</tspan></text>
</g><g
         id="g344"
         transform="scale(10)"><text
           transform="matrix(1,0,0,-1,247.699,43.3148)"
           style="font-variant:normal;font-weight:normal;font-size:7px;font-family:ArialMT;-inkscape-font-specification:ArialMT;writing-mode:lr-tb;fill:#00adef;fill-opacity:1;fill-rule:nonzero;stroke:none"
           id="text352"><tspan
             x="0 4.6690001 8.5615864"
             y="0"
             sodipodi:role="line"
             id="tspan346">ALU</tspan><tspan
             x="-3.6956999 -0.1957 3.6968858 7.5904484 9.5347881 11.866814 15.759399"
             y="7.7277298"
             sodipodi:role="line"
             id="tspan348">control</tspan><tspan
             x="-4.6687469 0.00025300001 3.8938155 8.9484987 14.393815"
             y="36.76363"
             sodipodi:role="line"
             id="tspan350">ALUOp</tspan></text>
</g><path
         d="M 2545.03,214.891 V 145.762"
         style="fill:none;stroke:#00adef;stroke-width:5;stroke-linecap:butt;stroke-linejoin:miter;stroke-miterlimit:4;stroke-dasharray:none;stroke-opacity:1"
         id="path354"
         inkscape:connector-curvature="0" /><path
         d="M 1478.74,452.34 V 88.6914 h 835.22 V 415.781 h 55.4"
         style="fill:none;stroke:#231f20;stroke-width:7.5;stroke-linecap:butt;stroke-linejoin:miter;stroke-miterlimit:4;stroke-dasharray:none;stroke-opacity:1"
         id="path356"
         inkscape:connector-curvature="0" /><path
         d="m 2377.14,421.93 c -9.92,3 -16.37,5.75 -24.33,8.941 v -30.262 c 2.85,1.36 14.41,5.961 24.33,8.942 10.61,3.219 20.24,5.418 26.48,6.199 -6.24,0.781 -15.87,2.969 -26.48,6.18"
         style="fill:#231f20;fill-opacity:1;fill-rule:nonzero;stroke:none"
         id="path358"
         inkscape:connector-curvature="0" /><g
         id="g360"
         transform="scale(10)"><text
           transform="matrix(1,0,0,-1,150.704,13.2488)"
           style="font-variant:normal;font-weight:normal;font-size:7px;font-family:ArialMT;-inkscape-font-specification:ArialMT;writing-mode:lr-tb;fill:#231f20;fill-opacity:1;fill-rule:nonzero;stroke:none"
           id="text372"><tspan
             x="0 1.946 5.8379998 9.3380003 11.284 13.615 17.507 21.007 22.952999 24.507 28.399 32.291 34.237 36.182999 40.075001 43.966999 45.912998 49.807026 53.6996 56.030602 59.924164 63.81675"
             y="0"
             sodipodi:role="line"
             id="tspan362">Instruction [30,14-12]</tspan><tspan
             x="-64.131203 -62.1852 -58.293201 -54.793201 -52.847198 -50.516201 -46.624199 -43.124199 -41.1782 -39.624199 -35.732201 -31.8402 -29.894199 -27.9482 -24.0562 -20.1642 -17.8332 -13.9412 -10.0492"
             y="-132.61501"
             sodipodi:role="line"
             id="tspan364">Instruction [19-15]</tspan><tspan
             x="-64.131203 -62.319092 -58.565964 -55.198776 -53.387451 -51.196533 -47.442917 -44.076218 -42.264793 -40.849758 -37.096832 -33.342926 -31.531399 -29.719383 -25.959146 -22.199373 -20.001148 -16.241375"
             y="-91.1334"
             sodipodi:role="line"
             id="tspan366">Instruction [11-7]</tspan><tspan
             x="-64.131203 -62.1852 -58.293201 -54.793201 -52.847198 -50.516201 -46.624199 -43.124199 -41.1782 -39.624199 -35.732201 -31.8402 -29.894199 -27.9482 -24.0562 -20.1642 -17.8332 -13.9412 -10.0492"
             y="-115.5334"
             sodipodi:role="line"
             id="tspan368">Instruction [24-20]</tspan><tspan
             x="-64.131203 -62.1852 -58.293201 -54.793201 -52.847198 -50.516201 -46.624199 -43.124199 -41.1782 -39.624199 -35.732201 -31.8402 -29.894199 -27.9482 -24.0562 -20.1642 -17.8332 -13.9412"
             y="-35.853298"
             sodipodi:role="line"
             id="tspan370">Instruction [31-0]</tspan></text>
</g><path
         d="m 2684.08,415.75 h 62.2 v 499.59"
         style="fill:none;stroke:#231f20;stroke-width:7.5;stroke-linecap:butt;stroke-linejoin:miter;stroke-miterlimit:4;stroke-dasharray:none;stroke-opacity:1"
         id="path374"
         inkscape:connector-curvature="0" /><path
         d="m 259.023,1378.5 c 0,-9.66 7.84,-17.5 17.5,-17.5 9.668,0 17.5,7.84 17.5,17.5 0,9.65 -7.832,17.5 -17.5,17.5 -9.66,0 -17.5,-7.85 -17.5,-17.5"
         style="fill:#231f20;fill-opacity:1;fill-rule:nonzero;stroke:none"
         id="path376"
         inkscape:connector-curvature="0" /><path
         d="m 817.465,1248.87 c 0,-9.65 7.832,-17.5 17.5,-17.5 9.672,0 17.5,7.85 17.5,17.5 0,9.65 -7.828,17.5 -17.5,17.5 -9.668,0 -17.5,-7.85 -17.5,-17.5"
         style="fill:#231f20;fill-opacity:1;fill-rule:nonzero;stroke:none"
         id="path378"
         inkscape:connector-curvature="0" /><path
         d="m 817.465,1011.61 c 0,-9.67 7.832,-17.508 17.5,-17.508 9.672,0 17.5,7.838 17.5,17.508 0,9.66 -7.828,17.49 -17.5,17.49 -9.668,0 -17.5,-7.83 -17.5,-17.49"
         style="fill:#231f20;fill-opacity:1;fill-rule:nonzero;stroke:none"
         id="path380"
         inkscape:connector-curvature="0" /><path
         d="m 817.465,1132.69 c 0,-9.68 7.832,-17.5 17.5,-17.5 9.672,0 17.5,7.82 17.5,17.5 0,9.66 -7.828,17.5 -17.5,17.5 -9.668,0 -17.5,-7.84 -17.5,-17.5"
         style="fill:#231f20;fill-opacity:1;fill-rule:nonzero;stroke:none"
         id="path382"
         inkscape:connector-curvature="0" /><path
         d="m 1461.24,451.871 c 0,-9.672 7.85,-17.5 17.5,-17.5 9.67,0 17.5,7.828 17.5,17.5 0,9.66 -7.83,17.5 -17.5,17.5 -9.65,0 -17.5,-7.84 -17.5,-17.5"
         style="fill:#231f20;fill-opacity:1;fill-rule:nonzero;stroke:none"
         id="path384"
         inkscape:connector-curvature="0" /><path
         d="m 2189.05,1039.08 c 0,-9.67 7.83,-17.5 17.5,-17.5 9.67,0 17.5,7.83 17.5,17.5 0,9.66 -7.83,17.5 -17.5,17.5 -9.67,0 -17.5,-7.84 -17.5,-17.5"
         style="fill:#231f20;fill-opacity:1;fill-rule:nonzero;stroke:none"
         id="path386"
         inkscape:connector-curvature="0" /><path
         d="m 2242.02,828.148 c 0,-9.679 7.82,-17.5 17.49,-17.5 9.67,0 17.51,7.821 17.51,17.5 0,9.672 -7.84,17.5 -17.51,17.5 -9.67,0 -17.49,-7.828 -17.49,-17.5"
         style="fill:#231f20;fill-opacity:1;fill-rule:nonzero;stroke:none"
         id="path388"
         inkscape:connector-curvature="0" /><path
         d="m 2978.91,1058.77 c 0,-9.66 7.84,-17.49 17.51,-17.49 9.66,0 17.49,7.83 17.49,17.49 0,9.67 -7.83,17.51 -17.49,17.51 -9.67,0 -17.51,-7.84 -17.51,-17.51"
         style="fill:#231f20;fill-opacity:1;fill-rule:nonzero;stroke:none"
         id="path390"
         inkscape:connector-curvature="0" /><g
         id="g392"
         transform="scale(10)"><text
           transform="matrix(1,0,0,-1,161.285,126.351)"
           style="font-variant:normal;font-weight:normal;font-size:7px;font-family:ArialMT;-inkscape-font-specification:ArialMT;writing-mode:lr-tb;fill:#231f20;fill-opacity:1;fill-rule:nonzero;stroke:none"
           id="text406"><tspan
             x="0 5.0539999 8.9460001 12.838"
             y="0"
             sodipodi:role="line"
             id="tspan394">Read</tspan><tspan
             x="0 2.3310001 6.223 10.115 11.669 15.169 17.115 21.007 23.337999 25.284"
             y="7.2589798"
             sodipodi:role="line"
             id="tspan396">register 2</tspan><tspan
             x="0 6.480864 8.8118639 10.365864 12.311864"
             y="23.952379"
             sodipodi:role="line"
             id="tspan398">Write</tspan><tspan
             x="0 2.3310001 6.223 10.115 11.669 15.169 17.115 21.007"
             y="31.212151"
             sodipodi:role="line"
             id="tspan400">register</tspan><tspan
             x="0 6.480864 8.8118639 10.365864 12.311864"
             y="44.135151"
             sodipodi:role="line"
             id="tspan402">Write</tspan><tspan
             x="0 3.892 7.7839999 9.7299995"
             y="51.393349"
             sodipodi:role="line"
             id="tspan404">data</tspan></text>
</g><path
         d="m 459.008,1852.75 h 69.43"
         style="fill:none;stroke:#231f20;stroke-width:7.5;stroke-linecap:butt;stroke-linejoin:miter;stroke-miterlimit:4;stroke-dasharray:none;stroke-opacity:1"
         id="path408"
         inkscape:connector-curvature="0" /><path
         d="m 542.613,1858.9 c -9.922,3 -16.375,5.76 -24.332,8.95 v -30.26 c 2.86,1.35 14.41,5.95 24.332,8.95 10.617,3.2 20.239,5.4 26.489,6.18 -6.25,0.78 -15.872,2.98 -26.489,6.18"
         style="fill:#231f20;fill-opacity:1;fill-rule:nonzero;stroke:none"
         id="path410"
         inkscape:connector-curvature="0" /><path
         d="m 3185.28,2183.96 c -9.92,2.99 -16.37,5.74 -24.33,8.95 l 0.02,-30.28 c 2.85,1.35 14.4,5.96 24.31,8.98 10.62,3.2 20.25,5.41 26.49,6.18 -6.24,0.78 -15.87,2.98 -26.49,6.17"
         style="fill:#231f20;fill-opacity:1;fill-rule:nonzero;stroke:none"
         id="path412"
         inkscape:connector-curvature="0" /><path
         d="m 2604.19,2021.97 c -9.92,3 -16.37,5.76 -24.33,8.95 v -30.26 c 2.85,1.35 14.41,5.96 24.33,8.95 10.61,3.2 20.24,5.41 26.48,6.18 -6.24,0.79 -15.87,2.98 -26.48,6.18"
         style="fill:#231f20;fill-opacity:1;fill-rule:nonzero;stroke:none"
         id="path414"
         inkscape:connector-curvature="0" /><path
         d="m 262.066,1583.16 c 0,-9.68 7.832,-17.5 17.5,-17.5 9.657,0 17.5,7.82 17.5,17.5 0,9.66 -7.843,17.5 -17.5,17.5 -9.668,0 -17.5,-7.84 -17.5,-17.5"
         style="fill:#231f20;fill-opacity:1;fill-rule:nonzero;stroke:none"
         id="path416"
         inkscape:connector-curvature="0" /><path
         d="m 1232.74,2015.82 v 161.38 l 1952.54,0.61"
         style="fill:none;stroke:#231f20;stroke-width:7.5;stroke-linecap:butt;stroke-linejoin:miter;stroke-miterlimit:4;stroke-dasharray:none;stroke-opacity:1"
         id="path418"
         inkscape:connector-curvature="0" /><path
         d="m 813.23,2015.8 419.51,0.02"
         style="fill:none;stroke:#231f20;stroke-width:7.5;stroke-linecap:butt;stroke-linejoin:miter;stroke-miterlimit:4;stroke-dasharray:none;stroke-opacity:1"
         id="path420"
         inkscape:connector-curvature="0" /><path
         d="M 279.566,1583.16 H 1581.11"
         style="fill:none;stroke:#231f20;stroke-width:7.5;stroke-linecap:butt;stroke-linejoin:miter;stroke-miterlimit:4;stroke-dasharray:none;stroke-opacity:1"
         id="path422"
         inkscape:connector-curvature="0" /><path
         d="m 1581.11,1583.16 v 433.4"
         style="fill:none;stroke:#231f20;stroke-width:7.5;stroke-linecap:butt;stroke-linejoin:miter;stroke-miterlimit:4;stroke-dasharray:none;stroke-opacity:1"
         id="path424"
         inkscape:connector-curvature="0" /><path
         d="m 1581.11,2016.56 h 998.75"
         style="fill:none;stroke:#231f20;stroke-width:7.5;stroke-linecap:butt;stroke-linejoin:miter;stroke-miterlimit:4;stroke-dasharray:none;stroke-opacity:1"
         id="path426"
         inkscape:connector-curvature="0" /></g></g></svg>